<svg xml:space="preserve" viewBox="18.125 31.874999999999996 213.75 187.5" y="0px" x="0px" version="1.1" xmlns:xlink="http://www.w3.org/1999/xlink" xmlns="http://www.w3.org/2000/svg" style="max-height: 500px" width="213.75" height="187.5"><g><path d="M206.29,36.309c-0.864-1.742-2.609-2.824-4.555-2.824c-0.778,0-1.56,0.184-2.257,0.53L136.084,65.46   c-2.508,1.245-3.538,4.3-2.294,6.812l0.148,0.298L80.188,99.231c-1.216,0.604-2.125,1.645-2.559,2.931   c-0.433,1.287-0.339,2.665,0.264,3.881l1.891,3.813l-36.24,17.977l-4.835-9.748l-15.192,7.537c-1.217,0.602-2.126,1.643-2.56,2.93   s-0.341,2.666,0.263,3.883l19.051,38.407c0.865,1.741,2.61,2.823,4.555,2.823h0c0.777,0,1.557-0.183,2.256-0.529l15.196-7.539   l-4.834-9.746l36.24-17.975l1.891,3.811c0.603,1.217,1.644,2.125,2.931,2.559c0.533,0.18,1.082,0.27,1.628,0.27   c0.773,0,1.541-0.179,2.253-0.532l8.104-4.021c1.784,2.601,4.13,4.697,6.829,6.168l-30.279,66.854   c-0.57,1.258-0.012,2.739,1.246,3.309c0.334,0.152,0.685,0.224,1.03,0.224c0.952,0,1.861-0.546,2.279-1.47l30.391-67.102   c1.544,0.385,3.147,0.596,4.788,0.596c1.651,0,3.248-0.225,4.782-0.608l30.397,67.114c0.418,0.924,1.327,1.47,2.279,1.47   c0.345,0,0.695-0.071,1.03-0.224c1.258-0.569,1.816-2.051,1.246-3.309l-30.279-66.854c6.148-3.359,10.329-9.887,10.329-17.373   c0-2.116-0.342-4.188-1.007-6.185l10.587-5.251l0.148,0.297c0.864,1.743,2.61,2.825,4.555,2.825c0.778,0,1.558-0.183,2.256-0.53   l63.394-31.445c2.511-1.245,3.54-4.301,2.294-6.811L206.29,36.309z M44.859,168.656c-0.016,0.009-0.026,0.009-0.034,0.009   l-0.076-0.046l-19.05-38.406l0.038-0.11l10.716-5.316l19.124,38.554L44.859,168.656z M55.221,151.372l-9.455-19.061l36.241-17.977   l9.455,19.061L55.221,151.372z M126.772,143.54c-5.532,0-10.556-3.059-13.116-7.983l-0.003-0.007   c-1.104-2.127-1.665-4.412-1.665-6.793c0-8.152,6.632-14.783,14.784-14.783c5.665,0,10.902,3.318,13.344,8.456   c0.956,2.011,1.44,4.139,1.44,6.327C141.556,136.908,134.924,143.54,126.772,143.54z M143.393,118.06   c-3.61-5.591-9.889-9.087-16.62-9.087c-10.909,0-19.784,8.874-19.784,19.783c0,2.336,0.402,4.604,1.197,6.767l-8.022,3.979   c-0.035,0.018-0.093-0.002-0.11-0.037l-17.681-35.645c-0.017-0.035,0.002-0.094,0.037-0.11l53.75-26.661l17.755,35.791   L143.393,118.06z M224.267,83.989l-63.395,31.445c-0.013,0.006-0.022,0.009-0.034,0.009l-0.076-0.046L138.27,70.052   c-0.021-0.042-0.004-0.093,0.037-0.113l63.392-31.444l0.111,0.036l22.494,45.349C224.324,83.919,224.306,83.969,224.267,83.989z"/></g><text font-family="'Helvetica Neue', Helvetica, Arial-Unicode, Arial, Sans-serif" font-weight="bold" font-size="5px" fill="#000000" y="265" x="0">Created by Sjirk de Vries</text><text font-family="'Helvetica Neue', Helvetica, Arial-Unicode, Arial, Sans-serif" font-weight="bold" font-size="5px" fill="#000000" y="270" x="0">from the Noun Project</text></svg>